<svg id="Layer_1" data-name="Layer 1" xmlns="http://www.w3.org/2000/svg" xmlns:xlink="http://www.w3.org/1999/xlink" viewBox="0 0 808 607.02">
  <defs>
    <style>
      .cls-1 {
        fill: none;
      }

      .cls-2 {
        clip-path: url(#clip-path);
      }

      .cls-3 {
        fill: #ccc;
      }

      .cls-4 {
        fill: #2f2e41;
      }

      .cls-5 {
        fill: #fff;
      }

      .cls-6 {
        fill: #3f3d56;
      }

      .cls-7 {
        fill: #8b88b5;
      }

      .cls-8 {
        fill: #e6e6e6;
      }
    </style>
    <clipPath id="clip-path" transform="translate(-39 -250)">
      <rect class="cls-1" width="1920" height="1080"/>
    </clipPath>
  </defs>
  <title>background 3m Ma7rous</title>
  <g class="cls-2">
    <g id="Log_in_to_3m_Ma7rous" data-name="Log in to 3m Ma7rous">
      <g id="Group_1" data-name="Group 1">
        <rect id="Rectangle_5" data-name="Rectangle 5" class="cls-3" x="203.7" y="186.04" width="405.24" height="2"/>
        <rect id="Rectangle_6" data-name="Rectangle 6" class="cls-3" x="405" y="1" width="2" height="186.04"/>
        <rect id="Rectangle_7" data-name="Rectangle 7" class="cls-3" x="235.35" y="93.02" width="341.3" height="2"/>
        <path id="Path_31" data-name="Path 31" class="cls-4" d="M509.54,580.34A42,42,0,0,1,499.15,608c-.6.69-1.23,1.35-1.87,2h-59.5c-.64-.65-1.27-1.31-1.87-2a41.88,41.88,0,0,1-8.59-15.45s0,0,0,0a42,42,0,0,1-1.8-12.2,41.27,41.27,0,0,1,.31-5.09,42,42,0,0,1,83.39-.11A43.08,43.08,0,0,1,509.54,580.34Z" transform="translate(-39 -250)"/>
        <path id="Path_32" data-name="Path 32" class="cls-4" d="M414.58,610h-5.14l4-2,.12-.06,0,.06Z" transform="translate(-39 -250)"/>
        <path id="Path_33" data-name="Path 33" class="cls-4" d="M449.61,610h-5.14l1-2,0-.06.12.06Z" transform="translate(-39 -250)"/>
        <circle id="Ellipse_5" data-name="Ellipse 5" class="cls-5" cx="425.59" cy="320.07" r="14.36"/>
        <ellipse id="Ellipse_6" data-name="Ellipse 6" class="cls-6" cx="459.69" cy="572.92" rx="4.77" ry="4.8" transform="translate(-309.48 242.85) rotate(-45)"/>
        <path id="Path_34" data-name="Path 34" class="cls-7" d="M500.67,534.64c.63-15.56-12.77-28.73-29.94-29.43s-31.6,11.35-32.23,26.9S449.8,551.2,467,551.89,500,550.19,500.67,534.64Z" transform="translate(-39 -250)"/>
        <path id="Path_35" data-name="Path 35" class="cls-5" d="M479.07,596.9a9.57,9.57,0,0,1-18.84,3.43v0c-.94-5.2,3.08-7,8.29-8S478.13,591.7,479.07,596.9Z" transform="translate(-39 -250)"/>
        <path id="Path_36" data-name="Path 36" class="cls-3" d="M686,608H194a18,18,0,0,0-.05,36H686a18,18,0,0,0,0-36Z" transform="translate(-39 -250)"/>
        <path id="Path_37" data-name="Path 37" class="cls-6" d="M649,454V609h-2V454q0-8.06-.63-16c0-.67-.1-1.33-.16-2A200.59,200.59,0,0,0,615,345l-1.3-2A202,202,0,0,0,446,252h-2q-5.69,0-11.28.36A200.57,200.57,0,0,0,366.12,268a203.25,203.25,0,0,0-89.83,75l-1.3,2a200.59,200.59,0,0,0-31.2,91c-.06.67-.11,1.33-.16,2q-.63,7.9-.63,16V609h-2V454q0-9.12.79-18A203.86,203.86,0,0,1,433.64,250.32Q439.28,250,445,250A204.22,204.22,0,0,1,648.21,436Q649,444.9,649,454Z" transform="translate(-39 -250)"/>
        <path id="Path_38" data-name="Path 38" class="cls-4" d="M388.64,752.07c56.61,1,56.59,85.18,0,86.14C332,837.24,332,753,388.64,752.07Z" transform="translate(-39 -250)"/>
        <rect id="Rectangle_8" data-name="Rectangle 8" class="cls-4" x="330.01" y="578.94" width="13.08" height="23.44"/>
        <rect id="Rectangle_9" data-name="Rectangle 9" class="cls-4" x="356.18" y="578.94" width="13.08" height="23.44"/>
        <path id="Path_39" data-name="Path 39" class="cls-4" d="M379.91,848.57c14.14-.1,14.14,8.28,0,8.17C365.78,856.84,365.78,848.47,379.91,848.57Z" transform="translate(-39 -250)"/>
        <path id="Path_40" data-name="Path 40" class="cls-4" d="M406.08,848c14.14-.1,14.14,8.28,0,8.18C391.94,856.3,391.94,847.92,406.08,848Z" transform="translate(-39 -250)"/>
        <path id="Path_41" data-name="Path 41" class="cls-5" d="M389.73,769.52c19.25.09,19.24,29.35,0,29.44C370.48,798.87,370.48,769.6,389.73,769.52Z" transform="translate(-39 -250)"/>
        <path id="Path_42" data-name="Path 42" class="cls-6" d="M389.73,779.33c6.36-.09,6.36,9.91,0,9.81C383.36,789.24,383.36,779.24,389.73,779.33Z" transform="translate(-39 -250)"/>
        <path id="Path_43" data-name="Path 43" class="cls-3" d="M346.86,755.09c-8.09-36.89,53.89-50.72,62.25-13.9,3.48,15.57-7.91,21.32-25.11,25.16S350.34,770.66,346.86,755.09Z" transform="translate(-39 -250)"/>
        <path id="Path_44" data-name="Path 44" class="cls-4" d="M407.41,636.45c10-26.27,22.68-21.43,12.63,4.83S397.36,662.72,407.41,636.45Z" transform="translate(-39 -250)"/>
        <path id="Path_45" data-name="Path 45" class="cls-4" d="M331.4,664.49c10-55.72,93.14-42.23,85,13.8C406.41,734,323.28,720.52,331.4,664.49Z" transform="translate(-39 -250)"/>
        <rect id="Rectangle_10" data-name="Rectangle 10" class="cls-4" x="315.29" y="455.19" width="13.08" height="23.44"/>
        <rect id="Rectangle_11" data-name="Rectangle 11" class="cls-4" x="341.46" y="455.19" width="13.08" height="23.44"/>
        <path id="Path_46" data-name="Path 46" class="cls-4" d="M365.19,724.82c14.14-.1,14.14,8.27,0,8.17C351.06,733.09,351.06,724.71,365.19,724.82Z" transform="translate(-39 -250)"/>
        <path id="Path_47" data-name="Path 47" class="cls-4" d="M391.36,724.27c14.14-.1,14.14,8.28,0,8.18C377.22,732.55,377.22,724.17,391.36,724.27Z" transform="translate(-39 -250)"/>
        <path id="Path_48" data-name="Path 48" class="cls-7" d="M332.14,631.34c-8.09-36.89,53.89-50.72,62.25-13.9,3.48,15.57-7.91,21.32-25.1,25.15S335.62,646.91,332.14,631.34Z" transform="translate(-39 -250)"/>
        <path id="Path_49" data-name="Path 49" class="cls-4" d="M306,642.18c3.05-8.19,43.33,10.92,38.91,18.46C341.82,668.83,301.53,649.72,306,642.18Z" transform="translate(-39 -250)"/>
        <ellipse id="Ellipse_7" data-name="Ellipse 7" class="cls-4" cx="511.2" cy="596.41" rx="6.59" ry="21.01" transform="translate(-304.16 226.86) rotate(-40.64)"/>
        <ellipse id="Ellipse_8" data-name="Ellipse 8" class="cls-4" cx="423.97" cy="596.4" rx="21.01" ry="6.59" transform="translate(-343.72 279.62) rotate(-49.36)"/>
        <path id="Path_50" data-name="Path 50" class="cls-8" d="M802,386H743a10,10,0,0,1,0-20v2a8,8,0,0,0,0,16h59Z" transform="translate(-39 -250)"/>
        <path id="Path_51" data-name="Path 51" class="cls-8" d="M741,439H682a10,10,0,0,1,0-20v2a8,8,0,0,0,0,16h59Z" transform="translate(-39 -250)"/>
        <path id="Path_52" data-name="Path 52" class="cls-8" d="M818,491v-2a8,8,0,0,0,0-16H759v-2h59a10,10,0,0,1,0,20Z" transform="translate(-39 -250)"/>
        <path id="Path_53" data-name="Path 53" class="cls-8" d="M837,309v-2a8,8,0,0,0,0-16H778v-2h59a10,10,0,0,1,0,20Z" transform="translate(-39 -250)"/>
        <path id="Path_54" data-name="Path 54" class="cls-8" d="M745,328H686a10,10,0,0,1,0-20v2a8,8,0,0,0,0,16h59Z" transform="translate(-39 -250)"/>
        <path id="Path_55" data-name="Path 55" class="cls-8" d="M169,518H110a10,10,0,0,1,0-20v2a8,8,0,0,0,0,16h59Z" transform="translate(-39 -250)"/>
        <path id="Path_56" data-name="Path 56" class="cls-8" d="M200,552v-2a8,8,0,0,0,0-16H141v-2h59a10,10,0,0,1,0,20Z" transform="translate(-39 -250)"/>
        <path id="Path_57" data-name="Path 57" class="cls-8" d="M108,571H49a10,10,0,0,1,0-20v2a8,8,0,0,0,0,16h59Z" transform="translate(-39 -250)"/>
        <path id="Path_58" data-name="Path 58" class="cls-8" d="M173,407H114a10,10,0,0,1,0-20v2a8,8,0,0,0,0,16h59Z" transform="translate(-39 -250)"/>
        <path id="Path_59" data-name="Path 59" class="cls-8" d="M204,441v-2a8,8,0,0,0,0-16H145v-2h59a10,10,0,0,1,0,20Z" transform="translate(-39 -250)"/>
        <path id="Path_60" data-name="Path 60" class="cls-8" d="M112,460H53a10,10,0,0,1,0-20v2a8,8,0,0,0,0,16h59Z" transform="translate(-39 -250)"/>
        <path id="Path_61" data-name="Path 61" class="cls-8" d="M598,715H539a10,10,0,0,1,0-20v2a8,8,0,0,0,0,16h59Z" transform="translate(-39 -250)"/>
        <path id="Path_62" data-name="Path 62" class="cls-8" d="M664,769v-2a8,8,0,0,0,0-16H605v-2h59a10,10,0,0,1,0,20Z" transform="translate(-39 -250)"/>
        <path id="Path_63" data-name="Path 63" class="cls-8" d="M544,779H485a10,10,0,0,1,0-20v2a8,8,0,0,0,0,16h59Z" transform="translate(-39 -250)"/>
        <path id="Path_64" data-name="Path 64" class="cls-8" d="M330,774v-2a8,8,0,0,0,0-16H271v-2h59a10,10,0,0,1,0,20Z" transform="translate(-39 -250)"/>
        <path id="Path_65" data-name="Path 65" class="cls-8" d="M152,799H93a10,10,0,0,1,0-20v2a8,8,0,0,0,0,16h59Z" transform="translate(-39 -250)"/>
        <path id="Path_66" data-name="Path 66" class="cls-6" d="M549.89,857h-381a1,1,0,1,1,0-2h381a1,1,0,0,1,0,2Z" transform="translate(-39 -250)"/>
        <path id="Path_67" data-name="Path 67" class="cls-6" d="M225.53,856.23c-.77,1.77-3.35.24-2.59-1.51a100.77,100.77,0,0,0,7.17-25.9,109.44,109.44,0,0,0-3.45-45.66l-.48-1.6c-.38-1.22-.78-2.44-1.2-3.64a103,103,0,0,0-22.68-37.46c-1.33-1.4.79-3.52,2.12-2.12a103.43,103.43,0,0,1,16.34,22.52,107.34,107.34,0,0,1,5.58,12.08c.63,1.61,1.22,3.24,1.78,4.87a114.23,114.23,0,0,1,5.81,30.06,107.2,107.2,0,0,1-8.4,48.36Z" transform="translate(-39 -250)"/>
        <path id="Path_68" data-name="Path 68" class="cls-6" d="M248.43,703.4q-5,18.29-10,36.57-5.17,18.93-10.33,37.84c-.49,1.79-1,3.58-1.46,5.35l-.48-1.6c-.38-1.22-.78-2.44-1.2-3.64q.68-2.49,1.36-5l1.86-6.81,17.34-63.53a1.5,1.5,0,0,1,2.89.8Z" transform="translate(-39 -250)"/>
        <path id="Path_69" data-name="Path 69" class="cls-7" d="M186.74,707.77c-1.74,3.84-3.51,7.72-4.27,11.87s-.41,8.65,1.83,12.22a20.3,20.3,0,0,0,7.43,6.46c4.18,2.39,9.63,4.07,13.63,1.39s4.47-8.83,2.21-13.14-6.48-7.2-10.58-9.81-7.33-4.68-10-8.76Z" transform="translate(-39 -250)"/>
        <path id="Path_70" data-name="Path 70" class="cls-7" d="M258,668.68c-4,1.32-8.06,2.65-11.62,4.91s-6.64,5.56-7.74,9.63a20.19,20.19,0,0,0,.28,9.83c1.08,4.7,3.53,9.84,8.22,11s9.53-2.7,11.16-7.28.9-9.64,0-14.44-1.53-8.55-.34-13.28Z" transform="translate(-39 -250)"/>
        <path id="Path_71" data-name="Path 71" class="cls-7" d="M186.12,755.25c1.11,4.07,2.24,8.18,4.31,11.85s5.23,6.91,9.24,8.22a20.31,20.31,0,0,0,9.83.21c4.75-.84,10-3,11.37-7.66s-2.22-9.65-6.72-11.51-9.58-1.38-14.41-.76-8.62,1.09-13.28-.34Z" transform="translate(-39 -250)"/>
        <path id="Path_72" data-name="Path 72" class="cls-7" d="M198.12,808.25c1.11,4.07,2.24,8.18,4.31,11.85s5.23,6.91,9.24,8.22a20.31,20.31,0,0,0,9.83.21c4.75-.85,10-3,11.37-7.66s-2.22-9.65-6.72-11.51-9.58-1.38-14.41-.76-8.62,1.09-13.28-.34Z" transform="translate(-39 -250)"/>
        <path id="Path_73" data-name="Path 73" class="cls-7" d="M263.88,773.25c-1.11,4.07-2.24,8.18-4.31,11.85s-5.23,6.91-9.24,8.22a20.31,20.31,0,0,1-9.83.21c-4.75-.84-10-3-11.37-7.66s2.22-9.65,6.72-11.51,9.58-1.38,14.41-.76,8.62,1.09,13.28-.34Z" transform="translate(-39 -250)"/>
        <path id="Path_74" data-name="Path 74" class="cls-7" d="M275.88,719.25c-1.11,4.07-2.24,8.18-4.31,11.85s-5.23,6.91-9.24,8.22a20.31,20.31,0,0,1-9.83.21c-4.75-.85-10-3-11.37-7.66s2.22-9.65,6.72-11.51,9.58-1.38,14.41-.76,8.62,1.09,13.28-.34Z" transform="translate(-39 -250)"/>
      </g>
    </g>
  </g>
</svg>
