<svg id="Layer_1" data-name="Layer 1" xmlns="http://www.w3.org/2000/svg" xmlns:xlink="http://www.w3.org/1999/xlink" viewBox="0 0 827.91 666.5"><defs><style>.cls-1{fill:none;}.cls-2{clip-path:url(#clip-path);}.cls-3{fill:#8b88b5;}.cls-4{fill:#2f2e41;}.cls-5{fill:#e6e6e6;}.cls-6{fill:#fff;}.cls-7{fill:#3f3d56;}</style><clipPath id="clip-path" transform="translate(-38.99 -250)"><rect class="cls-1" width="1920" height="1080"/></clipPath></defs><title>background(2) 3m Ma7rous</title><g class="cls-2"><g id="Sign_up_to_3m_Ma7rous" data-name="Sign up to 3m Ma7rous"><g id="Draw"><path id="Path_1" data-name="Path 1" class="cls-3" d="M188.17,689.16a7.16,7.16,0,0,1-2.15-.34,6.94,6.94,0,0,1-4.09-3.46l-6.76-13.11a7,7,0,0,1,3-9.43l109.34-56.38a7,7,0,0,1,9.43,3l6.76,13.12a7,7,0,0,1-3,9.43L191.36,688.38A7,7,0,0,1,188.17,689.16Z" transform="translate(-38.99 -250)"/><path id="Path_2" data-name="Path 2" class="cls-4" d="M227.83,638.05a7.18,7.18,0,0,1,.74,1.29l11.56,25.24a7,7,0,0,1-3.57,9.23h0l-38.86,13.58a17.47,17.47,0,0,1-21.47-8.84l.45-.22-.45.22a17.47,17.47,0,0,1,7.25-22.95l35.83-19.81a7,7,0,0,1,8.53,2.26Z" transform="translate(-38.99 -250)"/><path id="Path_3" data-name="Path 3" class="cls-5" d="M685.4,572H498.21a17.69,17.69,0,0,1-11.58-4.37l-77.1-68a14.47,14.47,0,0,0-9.59-3.63H333.4V266.5A16.52,16.52,0,0,1,349.9,250h319a16.52,16.52,0,0,1,16.5,16.5Z" transform="translate(-38.99 -250)"/><circle id="Ellipse_1" data-name="Ellipse 1" class="cls-6" cx="370.91" cy="71.5" r="35"/><path id="Path_4" data-name="Path 4" class="cls-6" d="M545.9,302.75h-65a4.5,4.5,0,0,0,0,9h65a4.5,4.5,0,0,0,0-9Z" transform="translate(-38.99 -250)"/><path id="Path_5" data-name="Path 5" class="cls-6" d="M640.26,331.25H480c-2,0-3.64,2-3.64,4.5s1.63,4.5,3.64,4.5H640.26c2,0,3.64-2,3.64-4.5S642.27,331.25,640.26,331.25Z" transform="translate(-38.99 -250)"/><path id="Path_6" data-name="Path 6" class="cls-6" d="M627.67,391.5H391.13c-1.92,0-3.48,2-3.48,4.5s1.56,4.5,3.48,4.5H627.67c1.92,0,3.48-2,3.48-4.5S629.59,391.5,627.67,391.5Z" transform="translate(-38.99 -250)"/><path id="Path_7" data-name="Path 7" class="cls-6" d="M627.67,419.5H391.13c-1.92,0-3.48,2-3.48,4.5s1.56,4.5,3.48,4.5H627.67c1.92,0,3.48-2,3.48-4.5S629.59,419.5,627.67,419.5Z" transform="translate(-38.99 -250)"/><path id="Path_8" data-name="Path 8" class="cls-6" d="M627.67,447.5H391.13c-1.92,0-3.48,2-3.48,4.5s1.56,4.5,3.48,4.5H627.67c1.92,0,3.48-2,3.48-4.5S629.59,447.5,627.67,447.5Z" transform="translate(-38.99 -250)"/><path id="Path_9" data-name="Path 9" class="cls-6" d="M627.67,475.5H391.13c-1.92,0-3.48,2-3.48,4.5s1.56,4.5,3.48,4.5H627.67c1.92,0,3.48-2,3.48-4.5S629.59,475.5,627.67,475.5Z" transform="translate(-38.99 -250)"/><path id="Path_10" data-name="Path 10" class="cls-3" d="M840.4,572H498.21a17.39,17.39,0,0,1-9.59-2.86l-.22-.15V335.5A16.52,16.52,0,0,1,504.9,319h319a16.52,16.52,0,0,1,16.5,16.5Z" transform="translate(-38.99 -250)"/><circle id="Ellipse_2" data-name="Ellipse 2" class="cls-6" cx="525.91" cy="140.5" r="35"/><path id="Path_11" data-name="Path 11" class="cls-6" d="M700.9,371.75h-65a4.5,4.5,0,0,0,0,9h65a4.5,4.5,0,1,0,0-9Z" transform="translate(-38.99 -250)"/><path id="Path_12" data-name="Path 12" class="cls-6" d="M795.26,400.25H635c-2,0-3.64,2-3.64,4.5s1.63,4.5,3.64,4.5H795.26c2,0,3.64-2,3.64-4.5S797.27,400.25,795.26,400.25Z" transform="translate(-38.99 -250)"/><path id="Path_13" data-name="Path 13" class="cls-6" d="M782.67,460.5H546.13c-1.92,0-3.48,2-3.48,4.5s1.56,4.5,3.48,4.5H782.67c1.92,0,3.48-2,3.48-4.5S784.59,460.5,782.67,460.5Z" transform="translate(-38.99 -250)"/><path id="Path_14" data-name="Path 14" class="cls-6" d="M782.67,488.5H546.13c-1.92,0-3.48,2-3.48,4.5s1.56,4.5,3.48,4.5H782.67c1.92,0,3.48-2,3.48-4.5S784.59,488.5,782.67,488.5Z" transform="translate(-38.99 -250)"/><path id="Path_15" data-name="Path 15" class="cls-6" d="M782.67,516.5H546.13c-1.92,0-3.48,2-3.48,4.5s1.56,4.5,3.48,4.5H782.67c1.92,0,3.48-2,3.48-4.5S784.59,516.5,782.67,516.5Z" transform="translate(-38.99 -250)"/><path id="Path_16" data-name="Path 16" class="cls-6" d="M782.67,544.5H546.13c-1.92,0-3.48,2-3.48,4.5s1.56,4.5,3.48,4.5H782.67c1.92,0,3.48-2,3.48-4.5S784.59,544.5,782.67,544.5Z" transform="translate(-38.99 -250)"/><path id="Path_17" data-name="Path 17" class="cls-7" d="M849.9,569.5H498.21a15,15,0,0,1-9.31-3.24c-.21-.16-.41-.33-.61-.51L458.52,539.5l-47.34-41.75a17,17,0,0,0-11.24-4.25h-86a17,17,0,0,0-17,17v389a17,17,0,0,0,17,17h536a17,17,0,0,0,17-17v-313A17,17,0,0,0,849.9,569.5Zm15,330a15,15,0,0,1-15,15h-536a15,15,0,0,1-15-15v-389a15,15,0,0,1,15-15h86a15,15,0,0,1,9.92,3.75L455.5,539.5,487,567.25a17.12,17.12,0,0,0,11.25,4.25H849.9a15,15,0,0,1,15,15Z" transform="translate(-38.99 -250)"/><circle id="Ellipse_3" data-name="Ellipse 3" class="cls-3" cx="103.26" cy="326.07" r="53.52"/><path id="Path_18" data-name="Path 18" class="cls-3" d="M141.82,915.92H127.06a7,7,0,0,1-7-7v-123a7,7,0,0,1,7-7h14.76a7,7,0,0,1,7,7v123A7,7,0,0,1,141.82,915.92Z" transform="translate(-38.99 -250)"/><path id="Path_19" data-name="Path 19" class="cls-3" d="M173.82,915.92H159.06a7,7,0,0,1-7-7v-123a7,7,0,0,1,7-7h14.76a7,7,0,0,1,7,7v123A7,7,0,0,1,173.82,915.92Z" transform="translate(-38.99 -250)"/><path id="Path_20" data-name="Path 20" class="cls-4" d="M227.42,758.67c0,43.63-41,57.7-84.67,57.7s-73.33-14.07-73.33-57.7,29.37-118,73-118S227.42,715,227.42,758.67Z" transform="translate(-38.99 -250)"/><path id="Path_21" data-name="Path 21" class="cls-4" d="M141.13,595.91l-.06-2c3.72-.1,7-.34,9.47-2.14a6.16,6.16,0,0,0,2.38-4.53,3.51,3.51,0,0,0-1.15-2.89c-1.64-1.38-4.27-.94-6.19-.06l-1.66.76,3.18-23.19,2,.27-2.7,19.73c2.6-.77,5-.44,6.68,1a5.51,5.51,0,0,1,1.86,4.49,8.16,8.16,0,0,1-3.2,6.08C148.55,595.7,144.44,595.82,141.13,595.91Z" transform="translate(-38.99 -250)"/><rect id="Rectangle_1" data-name="Rectangle 1" class="cls-4" x="119.89" y="313.83" width="10.77" height="2"/><rect id="Rectangle_2" data-name="Rectangle 2" class="cls-4" x="85.89" y="313.83" width="10.77" height="2"/><path id="Path_22" data-name="Path 22" class="cls-5" d="M736.9,847.5h-294a15,15,0,0,1-15-15v-162a15,15,0,0,1,15-15h294a15,15,0,0,1,15,15v162A15,15,0,0,1,736.9,847.5Zm-294-190a13,13,0,0,0-13,13v162a13,13,0,0,0,13,13h294a13,13,0,0,0,13-13v-162a13,13,0,0,0-13-13Z" transform="translate(-38.99 -250)"/><circle id="Ellipse_4" data-name="Ellipse 4" class="cls-5" cx="451.41" cy="465.5" r="35"/><path id="Path_23" data-name="Path 23" class="cls-5" d="M626.4,696.75h-65a4.5,4.5,0,0,0,0,9h65a4.5,4.5,0,1,0,0-9Z" transform="translate(-38.99 -250)"/><path id="Path_24" data-name="Path 24" class="cls-5" d="M720.76,725.25H560.54c-2,0-3.64,2-3.64,4.5s1.63,4.5,3.64,4.5H720.76c2,0,3.64-2,3.64-4.5S722.77,725.25,720.76,725.25Z" transform="translate(-38.99 -250)"/><path id="Path_25" data-name="Path 25" class="cls-5" d="M708.17,785.5H471.63c-1.92,0-3.48,2-3.48,4.5s1.56,4.5,3.48,4.5H708.17c1.92,0,3.48-2,3.48-4.5S710.09,785.5,708.17,785.5Z" transform="translate(-38.99 -250)"/><path id="Path_26" data-name="Path 26" class="cls-5" d="M708.17,813.5H471.63c-1.92,0-3.48,2-3.48,4.5s1.56,4.5,3.48,4.5H708.17c1.92,0,3.48-2,3.48-4.5S710.09,813.5,708.17,813.5Z" transform="translate(-38.99 -250)"/><path id="Path_27" data-name="Path 27" class="cls-4" d="M99.54,561.37c4.16-6.27,11.49-8.92,18.71-9.57,8.13-.73,16,.84,23.92,2.36,8.73,1.68,18,3.25,26.78,1.13a26.41,26.41,0,0,0,18-14.5,33.79,33.79,0,0,0,2-22.52c-2.06-8-7.18-15-13.38-20.32-12.67-10.84-29.81-15.7-46.3-15.25a78.32,78.32,0,0,0-45.38,16,73.67,73.67,0,0,0-26.14,41A76.73,76.73,0,0,0,61.38,588C65,596.32,70.2,603.87,74.23,612c3.75,7.6,6.63,16.43,4.3,24.9-2,7.43-8.06,14-15.6,16.06-7.19,1.92-14.28-1.23-18.22-7.44-3.77-5.95-3.86-13.74,1.8-18.54a13.89,13.89,0,0,1,19.6,1.46q.24.27.45.54a14.28,14.28,0,0,1,2.86,10.49c-.28,1.89,2.61,2.7,2.9.8a16.93,16.93,0,0,0-31.56-10.93c-3.41,6.42-1.57,14.17,2.76,19.66a19.17,19.17,0,0,0,19.53,7c7.89-1.82,14.35-8.1,17.38-15.46,3.38-8.2,1.83-17.36-1.46-25.32-3.55-8.61-8.84-16.32-13-24.62a69.85,69.85,0,0,1-7.11-23.95,75.8,75.8,0,0,1,10.81-48,70.43,70.43,0,0,1,38.8-29.48c15.8-5,33.24-4.81,48.71,1.28,15.25,6,30,19.11,29.79,36.68-.08,7.51-2.86,15.17-8.61,20.18-6.88,6-16.45,6.5-25.09,5.56s-17.14-3.48-25.88-4.13c-7.6-.56-15.79,0-22.57,3.8A22.6,22.6,0,0,0,97,559.85c-1.07,1.61,1.53,3.12,2.59,1.51Z" transform="translate(-38.99 -250)"/><path id="Path_28" data-name="Path 28" class="cls-3" d="M84.12,812.21a7.42,7.42,0,0,1-1.05-.08l-14.6-2.23a7,7,0,0,1-5.86-8L81.12,680.32a7,7,0,0,1,8-5.87l14.59,2.22a7,7,0,0,1,5.87,8L91,806.26a7,7,0,0,1-6.92,6Z" transform="translate(-38.99 -250)"/><path id="Path_29" data-name="Path 29" class="cls-4" d="M101.56,729.33a7.29,7.29,0,0,1-1.48-.16l-27.21-5.48a7,7,0,0,1-5.38-8.31h0L79.34,676a17.47,17.47,0,0,1,19.77-12.18l-.09.49.09-.49a17.47,17.47,0,0,1,14.31,19.35l-5,40.63a7,7,0,0,1-6.84,5.57Z" transform="translate(-38.99 -250)"/><path id="Path_30" data-name="Path 30" class="cls-7" d="M230.86,916.5h-157a1,1,0,0,1,0-2h157a1,1,0,1,1,0,2Z" transform="translate(-38.99 -250)"/></g></g></g></svg>