<svg xmlns="http://www.w3.org/2000/svg" viewBox="0 0 440 236" width="440" height="236">
	<style>
		tspan { white-space:pre }
		.shp0 { fill: #f8d1ba } 
		.shp1 { fill: #557571 } 
	</style>
	<g id="Layer_2_">
	</g>
	<g id="XMLID_41_">
		<g id="XMLID_21_">
			<g id="XMLID_2_">
				<path id="XMLID_12_" class="shp0" d="M18.3 131.9L18.3 131.9L18.3 131.9L44.7 185.9L70.9 131.9L70.9 131.9C73.9 131.9 76.3 134.1 76.7 137.1L84.4 207.4L81.3 207.4C75.5 207.4 70.6 202.9 70.1 197.1L67.5 167.2L47.7 205.6C47.1 206.7 46 207.4 44.8 207.4L44.8 207.4C43.6 207.4 42.4 206.7 41.9 205.6L22.1 167.2L19.5 197.1C19 202.9 14.1 207.4 8.3 207.4L5.2 207.4L12.9 137.1C12.9 134.2 15.4 131.9 18.3 131.9Z" />
				<path id="XMLID_14_" fill-rule="evenodd" class="shp0" d="M142.1 192.5L112.1 192.5L111.6 193.8C108.3 202 100.3 207.4 91.5 207.4L121.9 135.4C122.8 133.3 124.9 131.9 127.1 131.9C129.4 131.9 131.5 133.3 132.3 135.4L162.7 207.4C153.9 207.4 145.9 202 142.6 193.8L142.1 192.5ZM137.3 180.3L127.2 155.2L117 180.3L137.3 180.3Z" />
				<path id="XMLID_17_" fill-rule="evenodd" class="shp0" d="M227.1 157.9C227.1 174.1 214.8 183.8 194.8 183.8L185.1 183.8L185.1 194C185.1 201.4 179.1 207.4 171.7 207.4L171.7 155C171.7 142.2 182 131.9 194.8 131.9C214.8 131.9 227.1 141.7 227.1 157.9ZM213.6 157.9C213.6 149.9 206.4 144.9 194.7 144.9C189.4 144.9 185 149.2 185 154.6L185 170.9L194.7 170.9C206.4 170.8 213.6 165.9 213.6 157.9Z" />
			</g>
			<g id="XMLID_1_">
				<path id="XMLID_3_" fill-rule="evenodd" class="shp1" d="M74.9 69.4C74.9 85.6 62.6 95.3 42.6 95.3L32.9 95.3L32.9 105.4C32.9 112.8 26.9 118.8 19.5 118.8L19.5 66.4C19.5 53.6 29.8 43.3 42.6 43.3C62.7 43.5 74.9 53.3 74.9 69.4ZM61.5 69.4C61.5 61.4 54.3 56.4 42.6 56.4C37.3 56.4 32.9 60.7 32.9 66.1L32.9 82.4L42.6 82.4C54.3 82.4 61.5 77.4 61.5 69.4Z" />
				<path id="XMLID_6_" fill-rule="evenodd" class="shp1" d="M82.1 81.2C82.1 58.4 98.5 42.3 121.5 42.3C144.6 42.3 160.9 58.5 160.9 81.2C160.9 104 144.6 120.1 121.5 120.1C98.5 120.1 82.1 104 82.1 81.2ZM147.5 81.2C147.5 66.1 136.8 55.4 121.6 55.4C106.4 55.4 95.7 66.1 95.7 81.2C95.7 96.4 106.4 107.3 121.6 107.3C136.8 107.3 147.5 96.4 147.5 81.2Z" />
				<path id="XMLID_9_" fill-rule="evenodd" class="shp1" d="M228.4 69.4C228.4 85.6 216.1 95.3 196.1 95.3L186.4 95.3L186.4 105.4C186.4 112.8 180.4 118.8 173 118.8L173 66.4C173 53.6 183.3 43.3 196.1 43.3C216.1 43.5 228.4 53.3 228.4 69.4ZM214.9 69.4C214.9 61.4 207.7 56.4 196 56.4C190.7 56.4 186.3 60.7 186.3 66.1L186.3 82.4L196 82.4C207.7 82.4 214.9 77.4 214.9 69.4Z" />
			</g>
		</g>
	</g>
	<g id="XMLID_43_">
		<path id="XMLID_79_" class="shp1" d="M417.7 151.8C412.9 171.9 403.3 189.8 384.3 199.4C379.1 202.1 373.5 203.8 367.7 204.8C362.3 205.8 340.9 205.8 335.4 204.8C329.6 203.8 324 202 318.8 199.4C299.8 189.7 290.2 171.9 285.4 151.8C279.7 127.8 296.1 108.2 300.4 102.1C304.7 96 310.8 81 310.8 81C310.8 81 314.4 62.8 325.1 52.4C332.7 45.1 342.7 46.5 348 47.9C350.4 48.5 352.8 48.5 355.2 47.9C360.5 46.4 370.5 45 378.1 52.4C381.6 55.8 384.3 60 386.4 64.1C382.2 70.4 379.7 77.9 379.7 86.1C379.7 106.8 395.7 123.8 416 125.3C418.7 132.9 420.1 142 417.7 151.8Z" />
		<path id="XMLID_57_" class="shp0" d="M354.5 42.6C354.5 42.6 354.8 21.9 373.3 20C391.8 18.1 394.4 2.8 394.4 2.8C394.4 2.8 397.5 24.4 382.3 33.4C367.1 42.3 354.5 42.6 354.5 42.6Z" />
	</g>
	<path id="XMLID_42_" class="shp0" d="M261.3 205.4L261.3 205.4C264.1 205.4 266.4 203.1 266.4 200.3L266.4 50.3C266.4 47.5 264.1 45.2 261.3 45.2L261.3 45.2C258.5 45.2 256.2 47.5 256.2 50.3L256.2 200.3C256.2 203.1 258.4 205.4 261.3 205.4Z" />
</svg>